<svg xmlns="http://www.w3.org/2000/svg" xmlns:xlink="http://www.w3.org/1999/xlink" width="96" height="48" viewBox="0 0 96 48">
    <defs>
        <path id="9y3yl2yqia" d="M.137 14.849l4.11 1.196v10.999c0 8.425 3.903 13.883 11.707 16.373l6.08 1.81c-1.74 1.09-3.737 1.975-5.992 2.654C5.439 44.905.137 37.96.137 27.044V14.849zm26.61-5.782l4.112 1.198v16.858c0 6.767-1.917 12.005-5.752 15.711l-5.155-1.376c4.53-2.977 6.796-7.755 6.796-14.335V9.067zm4.112-6.344v4.329c-13-3.582-17.425-3.312-26.61-.995v6.7L.14 11.6.11 6.569l.028-3.846c13.154-3.849 19.495-3.405 30.72 0z"/>
        <path id="4x2lbh9aec" d="M34.04.119c1.977.72 3.37 2.067 3.933 4.038 1.757 6.155-5.247 16.07-15.644 22.145C11.93 32.378 2.077 32.312.32 26.158c-.656-2.3-.09-5.123 1.418-8.075-.3 1.364-.31 2.644.014 3.782 1.57 5.495 10.344 5.567 19.598.16S36.834 7.779 35.265 2.283c-.243-.852-.66-1.573-1.224-2.164z"/>
        <path id="hezv3mm6me" d="M38.735 14.428c.987 0 1.787.796 1.787 1.78 0 .982-.8 1.78-1.787 1.78-.987 0-1.787-.798-1.787-1.78 0-.984.8-1.78 1.787-1.78z"/>
        <path id="9ds7p7si5g" d="M31.382 14.428c.987 0 1.787.796 1.787 1.78 0 .982-.8 1.78-1.787 1.78-.987 0-1.787-.798-1.787-1.78 0-.984.8-1.78 1.787-1.78z"/>
        <path id="gxfvrt3mti" d="M27.425 14.428c.987 0 1.788.796 1.788 1.78 0 .982-.8 1.78-1.788 1.78-.987 0-1.787-.798-1.787-1.78 0-.984.8-1.78 1.787-1.78z"/>
        <path id="4d0m11fstk" d="M10.2 3.6c.994 0 1.8.806 1.8 1.8s-.806 1.8-1.8 1.8-1.8-.806-1.8-1.8.806-1.8 1.8-1.8z"/>
    </defs>
    <g fill="none" fill-rule="evenodd">
        <g>
            <g>
                <g>
                    <g>
                        <g>
                            <g transform="translate(-1264 -28) translate(1264 28) translate(57.6) translate(3.6)">
                                <mask id="2vnenf7q1b" fill="#fff">
                                    <use xlink:href="#9y3yl2yqia"/>
                                </mask>
                                <path fill="#224698" d="M-0.65 -0.802L31.62 -0.802 31.62 48.683 -0.65 48.683z" mask="url(#2vnenf7q1b)"/>
                            </g>
                            <g transform="translate(-1264 -28) translate(1264 28) translate(57.6) translate(0 8.4)">
                                <mask id="cpyjhwrxtd" fill="#fff">
                                    <use xlink:href="#4x2lbh9aec"/>
                                </mask>
                                <path fill="#F7AB08" d="M-2.202 1.985L38.555 -1.03 40.558 29.282 -0.198 32.297z" mask="url(#cpyjhwrxtd)"/>
                            </g>
                        </g>
                        <g transform="translate(-1264 -28) translate(1264 28) translate(0 1.2)">
                            <path fill="#224698" fill-rule="nonzero" d="M49.412 0c.546 0 .988.537.988 1.2 0 .64-.413 1.164-.934 1.198l-.054.002H36.988c-.546 0-.988-.537-.988-1.2 0-.64.413-1.164.934-1.198L36.988 0h12.424zM22.564 3.6c.514 0 .934.387.962.874l.001.05v8.36c0 .17.025.322.1.466.119.225.343.367.848.398l.056.003h15.305c.515 0 .935.387.963.874l.001.05c0 .494-.403.897-.91.924l-.054.001h-15.37c-1.246-.05-2.117-.577-2.559-1.417-.14-.266-.225-.542-.27-.822-.025-.151-.034-.271-.036-.4l-.001-.077v-8.36c0-.51.431-.924.964-.924zM43.2 2.4c.64 0 1.164.416 1.198.94l.002.055v11.21c0 .55-.537.995-1.2.995-.64 0-1.164-.416-1.198-.94L42 14.604V3.395c0-.55.537-.995 1.2-.995z"/>
                            <g transform="translate(0 26.4)">
                                <path fill="#224698" fill-rule="nonzero" d="M33.566 0c.562 0 1.022.4 1.052.906l.002.052v10.32c0 .53-.472.958-1.054.958-.563 0-1.023-.4-1.053-.905l-.001-.053V.958c0-.529.471-.958 1.054-.958z"/>
                                <path fill="#224698" fill-rule="nonzero" d="M5.561 0c1.795 0 2.868 1.034 2.903 2.793v6.759c0 .705.199.918.91.93H28.15l14.38.008c.743 0 .967-.204.98-.912V.958c0-.529.43-.958.962-.958.514 0 .934.4.961.906l.002.052v8.558c0 1.788-1.044 2.855-2.815 2.89h-.09l-14.38-.008H9.436c-1.786 0-2.86-1.02-2.895-2.758V2.882c0-.731-.204-.953-.918-.965H2.9c-.742 0-.963.196-.975.883V10.977c0 .53-.431.959-.963.959-.513 0-.933-.401-.96-.906L0 10.977V2.86C0 1.09 1.045.035 2.81 0h2.751z"/>
                                <path fill="#224698" fill-rule="nonzero" d="M21.633 0h-6.778c-1.815 0-2.883 1.078-2.883 2.897v9.364h12.587V2.915C24.559 1.081 23.473 0 21.633 0zm0 1.917h.061c.728.012.94.244.94.998v7.43h-8.738V2.896c0-.766.213-.98.959-.98h6.778z"/>
                                <mask id="z7wt43h5uf" fill="#fff">
                                    <use xlink:href="#hezv3mm6me"/>
                                </mask>
                                <path fill="#224698" d="M35.573 13.058L41.897 13.058 41.897 19.356 35.573 19.356z" mask="url(#z7wt43h5uf)"/>
                                <mask id="l3v2clbwvh" fill="#fff">
                                    <use xlink:href="#9ds7p7si5g"/>
                                </mask>
                                <path fill="#224698" d="M28.22 13.058L34.544 13.058 34.544 19.356 28.22 19.356z" mask="url(#l3v2clbwvh)"/>
                                <mask id="ys7zmlvjmj" fill="#fff">
                                    <use xlink:href="#gxfvrt3mti"/>
                                </mask>
                                <path fill="#224698" d="M24.263 13.058L30.587 13.058 30.587 19.356 24.263 19.356z" mask="url(#ys7zmlvjmj)"/>
                            </g>
                            <path fill="#224698" fill-rule="nonzero" d="M18.25 3.6c.507 0 .922.388.949.876l.001.051v8.293c0 1.711-1.015 2.739-2.744 2.779l-.087.001-12.308-.007c-1.77 0-2.826-1.004-2.86-2.708l-.001-.086V4.527c0-.512.425-.927.95-.927.506 0 .92.388.947.876l.002.051v8.272c0 .713.2.928.901.94h.061l12.304.007c.71-.003.925-.194.936-.867V4.527c0-.512.425-.927.95-.927z"/>
                            <mask id="ighzlnv6yl" fill="#fff">
                                <use xlink:href="#4d0m11fstk"/>
                            </mask>
                            <path fill="#224698" d="M7.2 2.4L13.2 2.4 13.2 8.4 7.2 8.4z" mask="url(#ighzlnv6yl)"/>
                        </g>
                    </g>
                </g>
            </g>
        </g>
    </g>
</svg>
