<svg xmlns="http://www.w3.org/2000/svg" width="123.254" height="44" viewBox="0 0 123.254 44"><g transform="translate(-193.65 -148.953)"><g transform="translate(193.65 150.256)"><g transform="translate(0 0)"><path d="M298.9,160.947h0a2.008,2.008,0,0,0-2.009,2.009V178.4A2.008,2.008,0,0,0,298.9,180.4h0A2.008,2.008,0,0,0,300.9,178.4V162.956A2.008,2.008,0,0,0,298.9,160.947Z" transform="translate(-233.823 -154.923)" fill="#fff"/><path d="M301.7,151.086H286.257a2.008,2.008,0,0,0,0,4.016H301.7a2.008,2.008,0,1,0,0-4.016Z" transform="translate(-228.905 -151.086)" fill="#fff"/><path d="M258.566,169.531a2.008,2.008,0,1,0-4.016,0v15.44a2.008,2.008,0,1,0,4.016,0Z" transform="translate(-217.348 -157.482)" fill="#fff"/><path d="M268.427,153.094a2.008,2.008,0,1,1-2.008-2.008A2.008,2.008,0,0,1,268.427,153.094Z" transform="translate(-221.185 -151.086)" fill="#fff"/><path d="M232.8,153.094a2.008,2.008,0,1,1-2.009-2.008A2.008,2.008,0,0,1,232.8,153.094Z" transform="translate(-207.32 -151.086)" fill="#fff"/><path d="M241.013,153.094a2.008,2.008,0,1,1-2.008-2.008A2.008,2.008,0,0,1,241.013,153.094Z" transform="translate(-210.518 -151.086)" fill="#fff"/><path d="M272.514,160.947H266.42a2.008,2.008,0,1,0,0,4.016h6.094a5.712,5.712,0,0,1,0,11.424H266.42a2.008,2.008,0,1,0,0,4.016h6.094a9.728,9.728,0,0,0,0-19.457Z" transform="translate(-221.185 -154.923)" fill="#fff"/><path d="M228.547,159.119a2.008,2.008,0,1,0-4.016,0v7.721a5.712,5.712,0,1,1-11.424,0V153.094a2.008,2.008,0,0,0-4.016,0v17.762a5.712,5.712,0,1,1-11.424,0v-7.72a2.008,2.008,0,1,0-4.016,0v7.721a9.73,9.73,0,0,0,18.852,3.382,9.728,9.728,0,0,0,16.044-7.4Z" transform="translate(-193.65 -151.086)" fill="#fff"/></g><g transform="translate(0.126 34.045)"><path d="M194.433,208.759a4.425,4.425,0,0,1,.724.508,2.869,2.869,0,0,1,.468.514,1.83,1.83,0,0,1,.252.5,1.645,1.645,0,0,1,.076.481.737.737,0,0,1-.037.191,2.582,2.582,0,0,1-.088.252,2.152,2.152,0,0,1-.109.234.523.523,0,0,1-.1.143,1.007,1.007,0,0,1-.362.17,1.812,1.812,0,0,1-.52.073.909.909,0,0,1-.66-.216.8.8,0,0,1-.222-.6,1.714,1.714,0,0,1,.112-.587,3.954,3.954,0,0,1,.344-.684l-.243-.158Zm.858,1.971a1.212,1.212,0,0,0-.195-.335,2.173,2.173,0,0,0-.322-.316,1.885,1.885,0,0,0-.195.319.549.549,0,0,0-.054.216.146.146,0,0,0,.088.137.464.464,0,0,0,.216.045,2.01,2.01,0,0,0,.216-.015A1.331,1.331,0,0,0,195.291,210.73Z" transform="translate(-193.856 -207.573)" fill="#fff"/><path d="M197.771,208.125q-.018-.194-.046-.374a1.986,1.986,0,0,0-.076-.325l.669-.608a1.287,1.287,0,0,1,.149.462,4.777,4.777,0,0,1,.033.6v1.734c0,.214,0,.422,0,.62s-.011.4-.027.6l-.578.3q-.006-.236-.015-.526t-.021-.593c-.008-.2-.015-.4-.021-.6s-.013-.384-.021-.556-.016-.322-.024-.45S197.774,208.186,197.771,208.125Z" transform="translate(-195.332 -206.818)" fill="#fff"/><path d="M200.451,212.331a1.738,1.738,0,0,1-.192-.021.344.344,0,0,1-.161-.076,1.915,1.915,0,0,1-.228.6,2.093,2.093,0,0,1-.365.462,1.721,1.721,0,0,1-.423.3.93.93,0,0,1-.4.106.581.581,0,0,1-.155-.034c-.071-.022-.152-.051-.243-.085s-.188-.073-.289-.115-.2-.086-.286-.131l.183-.639.7.061a.869.869,0,0,0,.237-.1,1.833,1.833,0,0,0,.258-.186,1.617,1.617,0,0,0,.222-.231.781.781,0,0,0,.133-.24,2.642,2.642,0,0,0-.073-.268c-.033-.1-.069-.207-.11-.316s-.085-.219-.133-.329-.1-.211-.14-.3l.7-.578.334.851a.351.351,0,0,0,.143.195.6.6,0,0,0,.277.049h.006v1.034Z" transform="translate(-195.355 -208.135)" fill="#fff"/><path d="M202.111,213.029c-.032,0-.061-.051-.085-.152a1.833,1.833,0,0,1,0-.729c.024-.1.053-.152.085-.152h.608v1.034Z" transform="translate(-197.021 -208.833)" fill="#fff"/><path d="M203.106,213.029c-.032,0-.06-.051-.085-.152a1.832,1.832,0,0,1,0-.729c.024-.1.053-.152.085-.152h.608v1.034Z" transform="translate(-197.408 -208.833)" fill="#fff"/><path d="M204.1,213.029c-.032,0-.061-.051-.086-.152a1.862,1.862,0,0,1,0-.729c.024-.1.053-.152.086-.152h.608v1.034Z" transform="translate(-197.796 -208.833)" fill="#fff"/><path d="M208.533,212.215a1.026,1.026,0,0,1-.477-.1.755.755,0,0,1-.3-.292c-.037.057-.076.112-.118.167s-.083.1-.122.146a.689.689,0,0,1-.109.1.165.165,0,0,1-.089.037c-.061,0-.156-.007-.286-.021a2.277,2.277,0,0,1-.4-.082,1.856,1.856,0,0,1-.386-.161.5.5,0,0,1-.24-.265,1.908,1.908,0,0,1-.24.252.984.984,0,0,1-.219.143.7.7,0,0,1-.216.06,2,2,0,0,1-.232.012c-.032,0-.06-.051-.085-.152a1.833,1.833,0,0,1,0-.729c.024-.1.053-.152.085-.152a2,2,0,0,0,.313-.021.913.913,0,0,0,.232-.067.627.627,0,0,0,.179-.122,1.3,1.3,0,0,0,.158-.185c.114-.158.218-.294.313-.407a1.653,1.653,0,0,1,.283-.274,1.006,1.006,0,0,1,.289-.152,1.062,1.062,0,0,1,.331-.049.349.349,0,0,1,.2.061.381.381,0,0,1,.131.152q.134.31.234.514a1.585,1.585,0,0,0,.2.326.588.588,0,0,0,.241.173,1.013,1.013,0,0,0,.356.052v1.034Zm-2.007-1.125c0,.033.021.061.064.086a.787.787,0,0,0,.164.067,1.253,1.253,0,0,0,.232.046,2.286,2.286,0,0,0,.27.015,2.1,2.1,0,0,1-.081-.2c-.023-.065-.045-.123-.067-.176a1.041,1.041,0,0,0-.061-.125.077.077,0,0,0-.064-.046.42.42,0,0,0-.189.042.552.552,0,0,0-.143.1.6.6,0,0,0-.091.112A.184.184,0,0,0,206.526,211.09Z" transform="translate(-198.183 -208.019)" fill="#fff"/><path d="M210.772,213.029c-.032,0-.061-.051-.086-.152a1.863,1.863,0,0,1,0-.729c.024-.1.053-.152.086-.152h.608v1.034Z" transform="translate(-200.391 -208.833)" fill="#fff"/><path d="M211.767,213.029c-.032,0-.06-.051-.085-.152a1.833,1.833,0,0,1,0-.729c.024-.1.053-.152.085-.152h.608v1.034Z" transform="translate(-200.778 -208.833)" fill="#fff"/><path d="M212.763,213.029c-.032,0-.061-.051-.085-.152a1.833,1.833,0,0,1,0-.729c.024-.1.053-.152.085-.152h.608v1.034Z" transform="translate(-201.166 -208.833)" fill="#fff"/><path d="M213.758,213.029c-.032,0-.06-.051-.085-.152a1.833,1.833,0,0,1,0-.729c.024-.1.053-.152.085-.152h.608v1.034Z" transform="translate(-201.553 -208.833)" fill="#fff"/><path d="M214.753,213.029c-.032,0-.06-.051-.085-.152a1.833,1.833,0,0,1,0-.729c.024-.1.053-.152.085-.152h.609v1.034Z" transform="translate(-201.94 -208.833)" fill="#fff"/><path d="M215.749,213.029c-.033,0-.061-.051-.086-.152a1.833,1.833,0,0,1,0-.729c.024-.1.053-.152.086-.152h.608v1.034Z" transform="translate(-202.328 -208.833)" fill="#fff"/><path d="M216.622,211.144a1.575,1.575,0,0,1,.037-.365c.024-.1.053-.152.086-.152H217c.063,0,.123,0,.179-.006a1.188,1.188,0,0,1-.042-.329,1.058,1.058,0,0,1,.094-.432,1.682,1.682,0,0,1,.24-.389l-.194-.1.383-.888,1.149.687a3.383,3.383,0,0,1,.545.4,1.716,1.716,0,0,1,.313.371,1.084,1.084,0,0,1,.143.362,2,2,0,0,1,.034.362,1.022,1.022,0,0,1-.079.4,1.81,1.81,0,0,1-.182.341,1.109,1.109,0,0,1-.213.237.326.326,0,0,1-.164.089,1.669,1.669,0,0,1-.4-.094c-.2-.064-.457-.166-.782-.307a2.272,2.272,0,0,1-.58.249,2.609,2.609,0,0,1-.7.091c-.032,0-.061-.051-.086-.152A1.572,1.572,0,0,1,216.622,211.144Zm1.095-1a.214.214,0,0,0,.07.146.962.962,0,0,0,.246.164.744.744,0,0,0,.2-.125.639.639,0,0,0,.125-.155.529.529,0,0,0-.119-.252.257.257,0,0,0-.186-.112.225.225,0,0,0-.115.037.49.49,0,0,0-.109.088.473.473,0,0,0-.079.109A.225.225,0,0,0,217.717,210.141Zm1.5.566a.393.393,0,0,0-.109-.265,1.537,1.537,0,0,0-.274-.24,1.086,1.086,0,0,1-.177.511c.122.045.23.082.326.113a.809.809,0,0,0,.191.045A.344.344,0,0,0,219.219,210.706Z" transform="translate(-202.715 -207.465)" fill="#fff"/><path d="M227.9,211.983a.816.816,0,0,1-.152-.012.375.375,0,0,1-.134-.054.688.688,0,0,0-.021.076q-.009.039-.022.082a3.09,3.09,0,0,1-.143.356.9.9,0,0,1-.13.222.877.877,0,0,1-.25.183,2.541,2.541,0,0,1-.4.167,3.4,3.4,0,0,1-.508.122,3.516,3.516,0,0,1-.575.046,1.975,1.975,0,0,1-.815-.143,1.075,1.075,0,0,1-.432-.313,1.147,1.147,0,0,1-.183-.4,1.977,1.977,0,0,1-.054-.475,3.06,3.06,0,0,1,.1-.778,4.356,4.356,0,0,1,.255-.724l.547.183a4.758,4.758,0,0,0-.164.574,2.2,2.2,0,0,0-.048.417,1.02,1.02,0,0,0,.024.24.536.536,0,0,0,.067.167.221.221,0,0,0,.094.079.941.941,0,0,0,.173.067,1.593,1.593,0,0,0,.228.049,1.819,1.819,0,0,0,.265.018,4.1,4.1,0,0,0,.66-.055,3.161,3.161,0,0,0,.611-.158q-.03-.359-.094-.754t-.173-.858l.761-.456.152.669a.745.745,0,0,0,.137.322.328.328,0,0,0,.228.1v1.034Zm-2.007-1.52c-.093-.068-.208-.145-.344-.228s-.262-.159-.38-.228l.4-.7a2.3,2.3,0,0,1,.414.216,2.349,2.349,0,0,1,.329.258Z" transform="translate(-205.617 -207.787)" fill="#fff"/><path d="M230.264,213.029c-.032,0-.06-.051-.085-.152a1.833,1.833,0,0,1,0-.729c.024-.1.053-.152.085-.152h.608v1.034Z" transform="translate(-207.976 -208.833)" fill="#fff"/><path d="M231.259,213.029c-.032,0-.06-.051-.085-.152a1.833,1.833,0,0,1,0-.729c.024-.1.053-.152.085-.152h.608v1.034Z" transform="translate(-208.363 -208.833)" fill="#fff"/><path d="M232.255,213.029c-.032,0-.061-.051-.085-.152a1.833,1.833,0,0,1,0-.729c.024-.1.053-.152.085-.152h.608v1.034Z" transform="translate(-208.751 -208.833)" fill="#fff"/><path d="M233.25,213.029c-.033,0-.061-.051-.086-.152a1.833,1.833,0,0,1,0-.729c.024-.1.053-.152.086-.152h.608v1.034Z" transform="translate(-209.138 -208.833)" fill="#fff"/><path d="M234.245,213.029c-.032,0-.061-.051-.086-.152a1.833,1.833,0,0,1,0-.729c.024-.1.053-.152.086-.152h.608v1.034Z" transform="translate(-209.525 -208.833)" fill="#fff"/><path d="M235.241,213.029c-.032,0-.06-.051-.085-.152a1.833,1.833,0,0,1,0-.729c.024-.1.053-.152.085-.152h.608v1.034Z" transform="translate(-209.913 -208.833)" fill="#fff"/><path d="M236.237,213.029c-.032,0-.061-.051-.086-.152a1.863,1.863,0,0,1,0-.729c.024-.1.053-.152.086-.152h.608v1.034Z" transform="translate(-210.3 -208.833)" fill="#fff"/><path d="M237.232,213.029c-.032,0-.061-.051-.085-.152a1.833,1.833,0,0,1,0-.729c.024-.1.053-.152.085-.152h.608v1.034Z" transform="translate(-210.687 -208.833)" fill="#fff"/><path d="M238.227,213.029c-.033,0-.061-.051-.086-.152a1.833,1.833,0,0,1,0-.729c.024-.1.053-.152.086-.152h.608v1.034Z" transform="translate(-211.075 -208.833)" fill="#fff"/><path d="M241.625,211.107a5.612,5.612,0,0,1-.773-.043.745.745,0,0,1-.468-.231.657.657,0,0,1-.42.225,3.853,3.853,0,0,1-.651.048h-.092c-.032,0-.06-.051-.085-.152a1.833,1.833,0,0,1,0-.729c.024-.1.053-.152.085-.152h.377a.544.544,0,0,1-.036-.149c0-.046-.006-.088-.006-.125a1.354,1.354,0,0,1,.091-.487,1.619,1.619,0,0,1,.234-.42,1.262,1.262,0,0,1,.316-.291.622.622,0,0,1,.332-.11.615.615,0,0,1,.331.107,1.361,1.361,0,0,1,.3.268,1.5,1.5,0,0,1,.222.346.831.831,0,0,1,.086.344.754.754,0,0,1-.034.167c-.023.079-.052.165-.088.258l-.037.092h.432v1.034Zm-.973-2.895c-.093-.068-.208-.145-.343-.228s-.263-.159-.381-.228l.4-.7a2.319,2.319,0,0,1,.414.216,2.44,2.44,0,0,1,.329.258Zm-.177,1.192a.352.352,0,0,0-.31.334.3.3,0,0,0,.058.158.847.847,0,0,0,.216.207,1.734,1.734,0,0,0,.222-.155,1,1,0,0,0,.173-.18.6.6,0,0,0-.06-.112.857.857,0,0,0-.095-.118.715.715,0,0,0-.106-.094A.169.169,0,0,0,240.475,209.4Z" transform="translate(-211.462 -206.911)" fill="#fff"/><path d="M245.057,211.014a1.089,1.089,0,0,1-.474-.091.74.74,0,0,1-.3-.255.489.489,0,0,1-.078.1.782.782,0,0,1-.347.18,1.887,1.887,0,0,1-.5.064c-.033,0-.061-.051-.086-.152a1.833,1.833,0,0,1,0-.729c.024-.1.053-.152.086-.152s.1,0,.213-.009a1.406,1.406,0,0,0,.359-.07c-.009-.194-.016-.386-.024-.574s-.017-.362-.025-.52-.015-.3-.021-.414-.011-.206-.015-.268q-.018-.194-.046-.374a1.989,1.989,0,0,0-.076-.325l.669-.608a1.287,1.287,0,0,1,.149.462,4.766,4.766,0,0,1,.034.6v1.734a.325.325,0,0,0,.124.261.668.668,0,0,0,.423.1v1.034Z" transform="translate(-213.07 -206.818)" fill="#fff"/><path d="M247.463,208.212a2.684,2.684,0,0,0-.307-.206l-.35-.206-.255.413a3.259,3.259,0,0,0-.346-.231l-.383-.225.4-.7a2.739,2.739,0,0,1,.371.191,2.51,2.51,0,0,1,.3.222l.237-.414a2.339,2.339,0,0,1,.414.216,2.442,2.442,0,0,1,.329.258ZM246,210.59a1.579,1.579,0,0,1,.036-.365c.024-.1.053-.152.086-.152h.17c.053,0,.115,0,.186-.009a1.7,1.7,0,0,0,.219-.034.951.951,0,0,0,.2-.067c-.016-.081-.037-.169-.064-.262s-.054-.185-.085-.276-.063-.181-.1-.268-.07-.167-.107-.24l.73-.578a3.737,3.737,0,0,1,.246.751,3.62,3.62,0,0,1,.088.769.719.719,0,0,1-.048.219,2.856,2.856,0,0,1-.122.289q-.073.148-.152.28a1.031,1.031,0,0,1-.134.185.569.569,0,0,1-.164.106,1.41,1.41,0,0,1-.249.089,2.5,2.5,0,0,1-.62.079c-.032,0-.061-.051-.086-.152A1.576,1.576,0,0,1,246,210.59Z" transform="translate(-214.077 -206.911)" fill="#fff"/><path d="M252.422,212.748a1.973,1.973,0,0,1-.815-.143,1.065,1.065,0,0,1-.432-.313,1.142,1.142,0,0,1-.183-.4,1.975,1.975,0,0,1-.054-.474,3.066,3.066,0,0,1,.1-.779,4.326,4.326,0,0,1,.255-.723l.547.182a4.624,4.624,0,0,0-.164.575,2.143,2.143,0,0,0-.048.417,1.015,1.015,0,0,0,.024.24.541.541,0,0,0,.067.167.224.224,0,0,0,.094.079.962.962,0,0,0,.173.067,1.683,1.683,0,0,0,.228.048,1.81,1.81,0,0,0,.264.018c.1,0,.2,0,.323-.006s.235-.013.353-.027a3.267,3.267,0,0,0,.34-.057,1.715,1.715,0,0,0,.292-.091c-.106-.032-.221-.065-.344-.1s-.262-.071-.416-.115a1.12,1.12,0,0,1-.287-.122.511.511,0,0,1-.155-.146.4.4,0,0,1-.064-.164,1.27,1.27,0,0,1-.012-.176,1.571,1.571,0,0,1,.118-.575,2.325,2.325,0,0,1,.307-.55,1.919,1.919,0,0,1,.42-.414.8.8,0,0,1,.462-.164.71.71,0,0,1,.368.112,1.824,1.824,0,0,1,.392.344l-.432.608a2.143,2.143,0,0,0-.2-.109.39.39,0,0,0-.158-.042.548.548,0,0,0-.283.109,1.084,1.084,0,0,0-.326.407.328.328,0,0,0,.092.051c.037.015.086.031.148.049s.141.04.235.064l.346.092a.633.633,0,0,1,.392.243.794.794,0,0,1,.094.414.967.967,0,0,1-.03.219c-.021.086-.045.17-.073.253a1.754,1.754,0,0,1-.091.222.55.55,0,0,1-.079.128,1.321,1.321,0,0,1-.307.219,2.638,2.638,0,0,1-.432.183,3.779,3.779,0,0,1-.511.128A3.082,3.082,0,0,1,252.422,212.748Z" transform="translate(-216.068 -207.67)" fill="#fff"/><path d="M258.13,212.24a2.262,2.262,0,0,1-.183.6,1.981,1.981,0,0,1-.294.462,1.342,1.342,0,0,1-.353.3.732.732,0,0,1-.356.1.693.693,0,0,1-.25-.067l-.48-.207.243-.638.3.031a.72.72,0,0,0,.191-.1,1.328,1.328,0,0,0,.216-.191,1.5,1.5,0,0,0,.185-.25.806.806,0,0,0,.107-.276c-.017-.077-.041-.167-.073-.268s-.068-.207-.109-.316-.085-.219-.134-.329-.1-.211-.14-.3l.7-.578.335.851a.343.343,0,0,0,.152.192.586.586,0,0,0,.274.052v1.034A.584.584,0,0,1,258.13,212.24Z" transform="translate(-218.121 -208.135)" fill="#fff"/><path d="M259.821,213.029c-.032,0-.061-.051-.086-.152a1.863,1.863,0,0,1,0-.729c.024-.1.053-.152.086-.152h.608v1.034Z" transform="translate(-219.477 -208.833)" fill="#fff"/><path d="M260.816,213.029c-.032,0-.061-.051-.086-.152a1.863,1.863,0,0,1,0-.729c.024-.1.053-.152.086-.152h.608v1.034Z" transform="translate(-219.865 -208.833)" fill="#fff"/><path d="M261.811,213.029c-.033,0-.061-.051-.086-.152a1.833,1.833,0,0,1,0-.729c.024-.1.053-.152.086-.152h.608v1.034Z" transform="translate(-220.252 -208.833)" fill="#fff"/><path d="M262.807,213.029c-.032,0-.06-.051-.085-.152a1.833,1.833,0,0,1,0-.729c.024-.1.053-.152.085-.152h.608v1.034Z" transform="translate(-220.639 -208.833)" fill="#fff"/><path d="M263.8,213.029c-.032,0-.06-.051-.085-.152a1.833,1.833,0,0,1,0-.729c.024-.1.053-.152.085-.152h.608v1.034Z" transform="translate(-221.027 -208.833)" fill="#fff"/><path d="M264.8,213.029c-.032,0-.061-.051-.085-.152a1.833,1.833,0,0,1,0-.729c.024-.1.053-.152.085-.152h.608v1.034Z" transform="translate(-221.414 -208.833)" fill="#fff"/><path d="M268.864,210.891l.173,0a1.28,1.28,0,0,0,.222-.027c-.016-.077-.037-.164-.061-.261s-.051-.2-.082-.3-.063-.2-.1-.3l-.095-.261.73-.578a3.371,3.371,0,0,1,.167.478c.043.16.076.31.1.45s.042.267.052.381.015.2.015.274a.917.917,0,0,1-.04.243,1.92,1.92,0,0,1-.1.28,2.157,2.157,0,0,1-.139.261,1.044,1.044,0,0,1-.144.189.7.7,0,0,1-.294.152,1.524,1.524,0,0,1-.435.06,1.117,1.117,0,0,1-.368-.064.618.618,0,0,1-.307-.235.742.742,0,0,1-.313.235,1.088,1.088,0,0,1-.38.064,1.368,1.368,0,0,1-.459-.073.6.6,0,0,1-.325-.3.747.747,0,0,1-.347.3,1.285,1.285,0,0,1-.45.073h-.091c-.033,0-.061-.051-.086-.152a1.833,1.833,0,0,1,0-.729c.024-.1.053-.152.086-.152h.122a.682.682,0,0,0,.386-.082.359.359,0,0,0,.142-.222l.14-.608.639.03q-.025.207-.043.347a1.976,1.976,0,0,0-.018.231c0,.2.111.3.335.3s.367-.071.4-.213l.061-.669h.638v.815a.424.424,0,0,0,.14.052A.706.706,0,0,0,268.864,210.891Z" transform="translate(-221.801 -207.728)" fill="#fff"/><path d="M273.22,208.125q-.018-.194-.046-.374a1.928,1.928,0,0,0-.076-.325l.669-.608a1.275,1.275,0,0,1,.149.462,4.772,4.772,0,0,1,.034.6v1.734c0,.214,0,.422,0,.62s-.012.4-.027.6l-.578.3c0-.158-.009-.333-.015-.526s-.013-.39-.021-.593-.015-.4-.021-.6-.013-.384-.021-.556-.017-.322-.024-.45S273.224,208.186,273.22,208.125Z" transform="translate(-224.691 -206.818)" fill="#fff"/><path d="M275.9,212.331a1.726,1.726,0,0,1-.191-.021.346.346,0,0,1-.161-.076,1.915,1.915,0,0,1-.228.6,2.111,2.111,0,0,1-.365.462,1.732,1.732,0,0,1-.423.3.932.932,0,0,1-.4.106.591.591,0,0,1-.155-.034c-.071-.022-.152-.051-.243-.085s-.188-.073-.289-.115-.2-.086-.285-.131l.182-.639.7.061a.88.88,0,0,0,.238-.1,1.862,1.862,0,0,0,.258-.186,1.615,1.615,0,0,0,.222-.231.784.784,0,0,0,.134-.24c-.016-.077-.041-.167-.073-.268s-.068-.207-.109-.316-.085-.219-.134-.329-.1-.211-.14-.3l.7-.578.335.851a.348.348,0,0,0,.143.195.6.6,0,0,0,.276.049h.007v1.034Z" transform="translate(-224.715 -208.135)" fill="#fff"/><path d="M277.56,213.029c-.032,0-.061-.051-.085-.152a1.833,1.833,0,0,1,0-.729c.024-.1.053-.152.085-.152h.608v1.034Z" transform="translate(-226.38 -208.833)" fill="#fff"/><path d="M278.556,213.029c-.032,0-.06-.051-.085-.152a1.833,1.833,0,0,1,0-.729c.024-.1.053-.152.085-.152h.608v1.034Z" transform="translate(-226.768 -208.833)" fill="#fff"/><path d="M279.551,213.029c-.032,0-.06-.051-.085-.152a1.833,1.833,0,0,1,0-.729c.024-.1.053-.152.085-.152h.608v1.034Z" transform="translate(-227.155 -208.833)" fill="#fff"/><path d="M280.547,213.029c-.032,0-.061-.051-.085-.152a1.833,1.833,0,0,1,0-.729c.024-.1.053-.152.085-.152h.608v1.034Z" transform="translate(-227.543 -208.833)" fill="#fff"/><path d="M281.542,213.029c-.033,0-.061-.051-.086-.152a1.833,1.833,0,0,1,0-.729c.024-.1.053-.152.086-.152h.608v1.034Z" transform="translate(-227.93 -208.833)" fill="#fff"/><path d="M285.608,210.891l.173,0a1.266,1.266,0,0,0,.222-.027c-.016-.077-.036-.164-.06-.261s-.052-.2-.082-.3-.062-.2-.1-.3-.066-.184-.094-.261l.729-.578a3.292,3.292,0,0,1,.167.478c.043.16.076.31.1.45s.042.267.052.381.015.2.015.274a.918.918,0,0,1-.04.243,1.919,1.919,0,0,1-.1.28,2.248,2.248,0,0,1-.14.261,1.074,1.074,0,0,1-.143.189.707.707,0,0,1-.3.152,1.521,1.521,0,0,1-.435.06,1.12,1.12,0,0,1-.368-.064.621.621,0,0,1-.307-.235.744.744,0,0,1-.313.235,1.089,1.089,0,0,1-.381.064,1.364,1.364,0,0,1-.459-.073.6.6,0,0,1-.326-.3.747.747,0,0,1-.347.3,1.285,1.285,0,0,1-.45.073h-.091c-.032,0-.061-.051-.086-.152a1.833,1.833,0,0,1,0-.729c.024-.1.053-.152.086-.152h.122a.681.681,0,0,0,.386-.082.36.36,0,0,0,.143-.222l.14-.608.638.03q-.024.207-.043.347a1.955,1.955,0,0,0-.018.231q0,.3.334.3.353,0,.4-.213l.061-.669h.638v.815a.429.429,0,0,0,.14.052A.705.705,0,0,0,285.608,210.891Z" transform="translate(-228.317 -207.728)" fill="#fff"/><path d="M291.831,213.7a.576.576,0,0,1-.155-.034c-.072-.022-.152-.051-.244-.085s-.187-.073-.288-.115-.2-.086-.286-.131l.182-.639.7.061a.869.869,0,0,0,.237-.1,1.874,1.874,0,0,0,.259-.186,1.612,1.612,0,0,0,.222-.231.783.783,0,0,0,.134-.24c-.016-.077-.041-.167-.073-.268s-.07-.207-.11-.316-.085-.219-.134-.329-.1-.211-.14-.3l.7-.578a5.894,5.894,0,0,1,.365,1,2.911,2.911,0,0,1,.092.639,1.827,1.827,0,0,1-.152.754,2.169,2.169,0,0,1-.374.584,1.835,1.835,0,0,1-.475.38A.974.974,0,0,1,291.831,213.7Z" transform="translate(-231.602 -208.135)" fill="#fff"/><path d="M297.4,212.2a1.949,1.949,0,0,1-.225.569,2.191,2.191,0,0,1-.334.432,1.453,1.453,0,0,1-.374.274.792.792,0,0,1-.344.094.581.581,0,0,1-.155-.034c-.071-.022-.151-.051-.243-.085s-.188-.073-.289-.115-.2-.086-.286-.131l.183-.639.7.061a1.286,1.286,0,0,0,.377-.167,1.69,1.69,0,0,0,.371-.307,2.414,2.414,0,0,1-.313.039q-.156.009-.313.009a.831.831,0,0,1-.59-.188.629.629,0,0,1-.2-.481,1.693,1.693,0,0,1,.037-.337c.024-.12.053-.241.085-.362a2.016,2.016,0,0,1,.307-.7.619.619,0,0,1,.526-.271.759.759,0,0,1,.414.116,1.142,1.142,0,0,1,.316.3,1.826,1.826,0,0,1,.222.42,3.2,3.2,0,0,1,.137.472h.28V212.2Zm-1.156-.973h.232c.073,0,.156,0,.249-.012a1.6,1.6,0,0,0-.219-.334.348.348,0,0,0-.262-.14.191.191,0,0,0-.131.046.4.4,0,0,0-.085.106.425.425,0,0,0-.046.122.512.512,0,0,0-.012.091c0,.032.022.061.067.085A.445.445,0,0,0,296.243,211.222Z" transform="translate(-233.272 -207.999)" fill="#fff"/><path d="M300.444,208.212a2.635,2.635,0,0,0-.307-.206l-.35-.206-.255.413a3.2,3.2,0,0,0-.346-.231l-.383-.225.4-.7a2.742,2.742,0,0,1,.371.191,2.513,2.513,0,0,1,.3.222l.238-.414a2.334,2.334,0,0,1,.413.216,2.444,2.444,0,0,1,.329.258Zm-1.46,2.378a1.574,1.574,0,0,1,.037-.365c.024-.1.052-.152.085-.152h.17c.052,0,.114,0,.185-.009a1.706,1.706,0,0,0,.219-.034.957.957,0,0,0,.2-.067c-.016-.081-.037-.169-.064-.262s-.054-.185-.085-.276-.063-.181-.1-.268-.07-.167-.107-.24l.73-.578a3.7,3.7,0,0,1,.246.751,3.583,3.583,0,0,1,.089.769.723.723,0,0,1-.049.219,2.725,2.725,0,0,1-.122.289q-.073.148-.152.28a1.029,1.029,0,0,1-.134.185.569.569,0,0,1-.164.106,1.393,1.393,0,0,1-.249.089,2.491,2.491,0,0,1-.62.079c-.033,0-.061-.051-.085-.152A1.571,1.571,0,0,1,298.984,210.59Z" transform="translate(-234.694 -206.911)" fill="#fff"/><path d="M302.618,208.125q-.018-.194-.046-.374a2.055,2.055,0,0,0-.076-.325l.668-.608a1.275,1.275,0,0,1,.149.462,4.66,4.66,0,0,1,.034.6v1.734c0,.214,0,.422,0,.62s-.011.4-.028.6l-.577.3q-.006-.236-.015-.526t-.021-.593c-.008-.2-.015-.4-.021-.6s-.013-.384-.021-.556-.016-.322-.024-.45S302.621,208.186,302.618,208.125Z" transform="translate(-236.131 -206.818)" fill="#fff"/><path d="M305.3,212.331a1.738,1.738,0,0,1-.192-.021.346.346,0,0,1-.161-.076,1.9,1.9,0,0,1-.228.6,2.11,2.11,0,0,1-.365.462,1.721,1.721,0,0,1-.423.3.93.93,0,0,1-.4.106.581.581,0,0,1-.155-.034c-.071-.022-.152-.051-.243-.085s-.188-.073-.289-.115-.2-.086-.286-.131l.183-.639.7.061a.864.864,0,0,0,.238-.1,1.831,1.831,0,0,0,.258-.186,1.578,1.578,0,0,0,.222-.231.77.77,0,0,0,.134-.24,2.634,2.634,0,0,0-.073-.268q-.049-.152-.109-.316c-.041-.109-.086-.219-.134-.329s-.095-.211-.139-.3l.7-.578.335.851a.351.351,0,0,0,.143.195.6.6,0,0,0,.277.049h.006v1.034Z" transform="translate(-236.154 -208.135)" fill="#fff"/><path d="M306.957,213.029c-.032,0-.061-.051-.086-.152a1.833,1.833,0,0,1,0-.729c.024-.1.053-.152.086-.152h.608v1.034Z" transform="translate(-237.819 -208.833)" fill="#fff"/><path d="M307.953,213.029c-.033,0-.061-.051-.086-.152a1.833,1.833,0,0,1,0-.729c.024-.1.053-.152.086-.152h.608v1.034Z" transform="translate(-238.207 -208.833)" fill="#fff"/><path d="M308.949,213.029c-.032,0-.061-.051-.086-.152a1.863,1.863,0,0,1,0-.729c.024-.1.053-.152.086-.152h.608v1.034Z" transform="translate(-238.595 -208.833)" fill="#fff"/><path d="M309.944,213.029c-.032,0-.061-.051-.085-.152a1.833,1.833,0,0,1,0-.729c.024-.1.053-.152.085-.152h.608v1.034Z" transform="translate(-238.982 -208.833)" fill="#fff"/><path d="M310.94,213.029c-.032,0-.061-.051-.086-.152a1.862,1.862,0,0,1,0-.729c.024-.1.053-.152.086-.152h.608v1.034Z" transform="translate(-239.369 -208.833)" fill="#fff"/><path d="M312.539,213.414a2.14,2.14,0,0,0-.307-.213l-.349-.207-.255.42a3.279,3.279,0,0,0-.347-.231l-.383-.225.4-.7a2.264,2.264,0,0,1,.371.185,2.173,2.173,0,0,1,.3.228l.236-.414a2.324,2.324,0,0,1,.414.216,2.377,2.377,0,0,1,.328.258Zm-1.082-2.007a1.614,1.614,0,0,1,.036-.365c.024-.1.053-.152.086-.152h.17q.079,0,.185-.009a1.707,1.707,0,0,0,.219-.034.962.962,0,0,0,.2-.067q-.025-.122-.064-.262c-.026-.093-.055-.185-.086-.276s-.062-.181-.1-.268-.07-.167-.106-.24l.73-.578a3.776,3.776,0,0,1,.246.751,3.619,3.619,0,0,1,.088.769.706.706,0,0,1-.049.219,2.6,2.6,0,0,1-.122.289q-.072.148-.152.28a1.03,1.03,0,0,1-.134.185.574.574,0,0,1-.164.106,1.428,1.428,0,0,1-.249.089,2.5,2.5,0,0,1-.621.079c-.032,0-.061-.051-.086-.152A1.611,1.611,0,0,1,311.457,211.407Zm.761,2.828q-.14-.1-.3-.2c-.108-.065-.214-.128-.319-.189q.1-.164.173-.3t.167-.3a2.484,2.484,0,0,1,.352.189,2,2,0,0,1,.286.225Z" transform="translate(-239.4 -207.728)" fill="#fff"/><path d="M314.932,208.125q-.018-.194-.046-.374a1.986,1.986,0,0,0-.076-.325l.669-.608a1.287,1.287,0,0,1,.149.462,4.76,4.76,0,0,1,.034.6v1.734c0,.214,0,.422,0,.62s-.012.4-.028.6l-.578.3q-.006-.236-.015-.526c-.006-.192-.013-.39-.021-.593s-.015-.4-.021-.6-.013-.384-.021-.556-.017-.322-.025-.45S314.935,208.186,314.932,208.125Z" transform="translate(-240.923 -206.818)" fill="#fff"/></g></g><g transform="translate(272.905 148.954)"><circle cx="22" cy="22" r="22" transform="translate(0)" fill="#fff"/><path d="M347.027,153.158a19.432,19.432,0,0,0-11.049,35.417V172.59a11.049,11.049,0,1,1,22.1,0v15.985a19.432,19.432,0,0,0-11.049-35.417Z" transform="translate(-325.027 -150.59)" fill="#e31f26"/><path d="M354.383,191.659a7.886,7.886,0,0,1-7.8-6.691,7.885,7.885,0,1,0,15.589,0A7.886,7.886,0,0,1,354.383,191.659Z" transform="translate(-332.383 -162.968)" fill="#e31f26"/></g></g></svg>