<?xml version="1.0" encoding="UTF-8"?>
<!DOCTYPE svg PUBLIC "-//W3C//DTD SVG 1.1//EN" "http://www.w3.org/Graphics/SVG/1.1/DTD/svg11.dtd">
<!-- Creator: CorelDRAW X7 -->
<svg xmlns="http://www.w3.org/2000/svg" xml:space="preserve" width="7.82in" height="1.78in" version="1.1" style="shape-rendering:geometricPrecision; text-rendering:geometricPrecision; image-rendering:optimizeQuality; fill-rule:evenodd; clip-rule:evenodd"
viewBox="0 0 7820 1780"
 xmlns:xlink="http://www.w3.org/1999/xlink">
 <defs>
  <style type="text/css">
   <![CDATA[
    .fil1 {fill:#133C8A;fill-rule:nonzero}
    .fil0 {fill:#231F20;fill-rule:nonzero}
   ]]>
  </style>
 </defs>
 <g id="Layer_x0020_1">
  <metadata id="CorelCorpID_0Corel-Layer"/>
  <g id="_660217984">
   <path class="fil0" d="M6580 19c106,-29 220,-22 326,6 91,23 179,62 262,107 25,15 50,30 77,44 140,89 271,193 391,309 61,59 123,117 179,181 -179,1 -358,1 -537,2 -6,0 -13,1 -17,-5 -21,-25 -43,-50 -64,-76 -47,-49 -91,-102 -140,-149 -29,-27 -56,-55 -86,-80 -82,-68 -168,-132 -265,-175 -78,-31 -163,-51 -246,-34 -100,15 -184,81 -247,159 67,-68 155,-119 251,-124 112,-6 219,38 314,95 26,14 48,33 73,49 72,51 137,110 200,172 32,35 67,67 98,103 83,91 160,188 236,285l-2 0c-17,0 -33,0 -49,0 -159,-5 -317,-9 -476,-14 -11,2 -14,-10 -19,-17 -74,-119 -154,-237 -262,-328 -55,-46 -122,-84 -194,-84 -67,0 -129,36 -176,82 -70,69 -121,156 -165,244 -19,40 -39,80 -55,122 -17,-1 -34,-1 -51,-2 44,-166 104,-329 189,-479 56,-97 123,-188 208,-261 71,-61 155,-109 247,-132z"/>
   <path class="fil1" d="M5936 891c17,1 34,1 51,2 160,7 321,8 482,15 13,14 21,33 32,49 63,98 132,194 217,273 52,46 112,89 181,102 61,12 126,-8 175,-46 65,-49 114,-117 156,-186 39,-69 74,-139 104,-212 16,0 32,0 49,0 -35,132 -81,261 -140,383 -51,111 -117,214 -199,303 -65,69 -142,126 -228,161 -69,30 -144,43 -219,45 -41,-3 -83,-5 -125,-12 -96,-19 -190,-53 -278,-98 -39,-17 -74,-41 -111,-61 -154,-97 -295,-213 -425,-341 -53,-48 -102,-101 -152,-152 183,-3 365,-2 547,-4 133,155 271,309 441,422 49,31 100,58 154,79 69,22 142,35 214,21 101,-18 188,-84 250,-166 -48,45 -102,87 -164,109 -53,18 -111,24 -166,15 -110,-15 -211,-68 -300,-133 -49,-31 -91,-70 -135,-107 -76,-70 -147,-145 -216,-222 -68,-77 -131,-158 -195,-239z"/>
   <path class="fil1" d="M518 446c-2,36 -13,66 -34,90 -20,24 -50,42 -88,52 -29,8 -71,13 -126,13 -65,-1 -113,-5 -145,-15 -36,-10 -63,-27 -84,-51 -20,-24 -32,-54 -35,-91 -3,-25 1,-54 10,-86l5 -14 80 17 -3 16c-5,29 -8,48 -7,57 2,19 8,35 19,46 11,12 28,20 50,25 24,5 52,8 84,8 10,0 19,0 27,0 19,0 29,0 33,-1 31,-1 51,-2 59,-4 23,-6 40,-15 51,-26 11,-12 17,-27 18,-46 1,-11 -1,-30 -7,-58l-2 -15 79 -17 4 14c10,28 13,57 12,86zm-212 -196l43 43 -43 43 -42 -43 42 -43zm-91 0l43 43 -43 43 -43 -43 43 -43zm353 -86l84 0 0 436 -84 0 0 -436zm253 388c4,-34 -4,-66 -25,-96l-10 -14 74 -40 8 12c30,45 42,95 35,149 -7,54 -29,96 -67,127 -38,30 -91,49 -157,55l-15 2 -15 -83 18 -1c49,-4 86,-15 111,-34 25,-18 39,-44 43,-77zm216 -111l74 -40 7 15c7,14 17,33 29,56 7,15 16,25 25,31 10,7 21,10 33,10l11 0 0 88 -7 0c-26,0 -46,-4 -61,-10 -12,46 -36,81 -73,107 -37,26 -86,41 -147,47l-15 2 -15 -83 18 -1c48,-4 85,-16 110,-34 25,-18 39,-44 44,-78 4,-28 -4,-60 -25,-96l-8 -14zm317 -31c-7,7 -10,15 -10,25 0,9 3,18 10,24 7,7 16,11 26,11 10,0 19,-4 26,-11 7,-6 10,-15 10,-24 0,-10 -3,-18 -10,-25 -7,-7 -16,-10 -26,-10 -10,0 -19,3 -26,10zm85 -78c34,18 53,42 58,72 5,25 4,49 -4,71 -5,13 -13,26 -23,37 13,1 28,1 47,1l46 0 0 87 -89 1c-31,0 -63,-11 -94,-31 -34,20 -65,31 -94,31l-90 0 0 -88 47 0c18,0 34,-1 47,-2 -9,-10 -16,-21 -21,-34 -10,-23 -11,-48 -4,-74 10,-36 32,-60 65,-74 15,-6 32,-10 51,-10 25,0 44,5 58,13zm-18 -149l43 42 -43 43 -43 -43 43 -42zm-92 0l43 42 -43 43 -43 -43 43 -42zm470 382c-20,23 -47,34 -81,34 -37,0 -67,-7 -89,-21 -16,15 -38,23 -66,23l-29 0 0 -88 34 0c7,0 11,-1 13,-3 4,-29 7,-45 7,-46l0 -1 0 -1c9,-34 24,-61 46,-81 18,-17 38,-26 61,-29 30,-3 56,4 78,21 34,25 50,65 50,120 0,31 -8,55 -24,72zm-86 -43c10,0 18,-3 24,-9 5,-5 6,-17 3,-36 -1,-14 -4,-23 -8,-30 -4,-6 -10,-10 -16,-11 -16,-4 -29,1 -38,15 -10,13 -15,31 -16,55 18,11 35,17 51,16zm424 -76c-13,-1 -22,0 -28,1 -1,16 -2,30 0,41 3,28 17,41 41,38 11,-2 17,-7 20,-18 2,-7 2,-16 1,-27 -1,-13 -4,-21 -9,-26 -5,-5 -14,-8 -25,-9zm114 65c4,2 10,2 18,2l32 0 0 88 -37 0c-23,0 -42,-5 -54,-14 -1,1 -2,1 -2,1 -15,10 -33,15 -54,16 -21,1 -39,-2 -53,-7 -22,-9 -39,-23 -50,-43 -11,-20 -18,-44 -19,-72 -4,14 -6,35 -6,62 0,12 0,43 0,92l0 113 -84 0 0 -230 0 0c3,-40 14,-73 32,-98 19,-25 45,-41 79,-47 45,-9 88,-9 130,1 22,5 39,17 51,35 10,15 15,34 17,58 1,12 1,26 0,43zm146 63c-20,18 -46,27 -76,27l-31 0 0 -88 16 0c19,0 31,-3 37,-9 8,-7 12,-17 13,-30l9 -82 65 0 8 82c2,13 6,23 14,29 7,7 21,10 40,10l17 0 0 88 -36 0c-30,0 -56,-9 -76,-27zm27 81l43 43 -43 42 -42 -42 42 -43zm-91 0l43 43 -43 42 -43 -42 43 -43zm348 -145l29 0c36,0 68,-7 96,-21 26,-11 40,-27 44,-46 1,-12 0,-21 -5,-27 -4,-6 -12,-10 -24,-12 -22,-4 -45,4 -69,23 -26,23 -50,50 -71,83zm242 -19c4,5 6,8 8,10 12,8 25,12 41,12l19 0 0 88 -37 0c-37,0 -67,-14 -90,-40 -39,26 -84,40 -135,40l-239 0 0 -88 54 0 0 -349 84 0 0 281c37,-58 79,-98 126,-119 40,-18 79,-19 116,-2 41,18 62,58 62,121 0,17 -3,32 -9,46zm-142 -326l43 43 -43 43 -43 -43 43 -43zm297 409c-20,18 -45,27 -76,27l-31 0 0 -88 16 0c19,0 31,-3 38,-9 7,-7 11,-17 13,-30l8 -82 65 0 9 82c1,13 5,23 13,29 7,7 21,10 40,10l17 0 0 88 -35 0c-31,0 -56,-9 -77,-27zm-18 -315l43 43 -43 42 -43 -42 43 -43zm239 309c-25,22 -59,33 -102,33l-27 0 0 -88 29 0c4,0 7,0 10,0 20,-3 33,-8 40,-17 12,-16 16,-40 13,-72 -1,-22 -5,-42 -9,-60l-4 -16 78 -17 5 13c7,21 11,47 13,77 3,69 -12,118 -46,147zm20 -368l43 43 -43 43 -43 -43 43 -43zm-91 0l42 43 -42 43 -43 -43 43 -43zm670 332c-10,55 -33,97 -70,125 -36,28 -83,41 -142,40 -62,0 -111,-14 -147,-43 -35,-29 -56,-70 -61,-125 -6,-53 4,-104 30,-152l6 -12 79 24 -7 16c-21,52 -29,92 -24,120 6,29 18,51 37,66 20,14 48,21 85,22 44,1 76,-8 97,-29 22,-21 33,-54 35,-101 1,-22 -7,-58 -22,-107l-5 -16 81 -21 5 14c24,70 32,129 23,179zm-212 -255l43 43 -43 43 -42 -43 42 -43zm272 180l0 -293 84 0 0 289c0,17 2,30 7,39 4,7 9,12 16,16 7,3 17,5 29,5l29 0 0 88 -35 0c-26,0 -48,-5 -67,-16 -19,-10 -33,-25 -44,-45 -12,-25 -19,-53 -19,-83zm402 108c-20,23 -47,34 -81,34 -37,0 -67,-7 -89,-21 -16,15 -38,23 -66,23l-29 0 0 -88 34 0c7,0 11,-1 13,-3 4,-29 7,-45 7,-46l0 -1 0 -1c9,-34 24,-61 46,-81 18,-17 38,-26 61,-29 30,-3 56,4 78,21 34,25 50,65 50,120 0,31 -8,55 -24,72zm-86 -43c10,0 18,-3 24,-9 5,-5 6,-17 3,-36 -1,-14 -4,-23 -8,-30 -5,-6 -10,-10 -16,-11 -16,-4 -29,1 -38,15 -10,13 -15,31 -16,55 18,11 35,17 51,16zm260 30c4,-34 -5,-66 -25,-96l-10 -14 74 -40 8 12c30,45 42,95 35,149 -7,54 -29,96 -67,127 -39,30 -91,49 -158,55l-14 2 -15 -83 18 -1c49,-4 86,-15 111,-34 24,-18 39,-44 43,-77zm-7 -297l43 43 -43 43 -43 -43 43 -43zm146 202l0 -293 83 0 0 289c0,17 3,30 7,39 4,7 9,12 16,16 8,3 17,5 29,5l29 0 0 88 -35 0c-25,0 -47,-5 -66,-16 -19,-10 -34,-25 -44,-45 -13,-25 -19,-53 -19,-83zm251 126c-18,12 -37,18 -59,18l-56 0 0 -88 37 0c18,0 31,-4 40,-11 9,-7 15,-20 17,-36l11 -64 60 0 7 65c2,17 6,29 13,37 8,7 19,11 33,11 15,0 26,-2 31,-6 6,-4 10,-11 11,-20l10 -87 64 0 9 80c1,14 5,23 10,28 6,5 14,7 26,5 13,-1 22,-17 27,-48 2,-12 1,-26 -1,-42 -3,-24 -7,-42 -12,-53l-8 -18 80 -17 5 12c10,22 15,54 17,95 2,44 -7,81 -27,110 -22,31 -49,46 -82,47 -36,0 -62,-9 -79,-27 -16,18 -43,27 -80,27 -40,-1 -69,-11 -87,-30 -4,3 -10,8 -17,12z"/>
   <path class="fil1" d="M277 1366c-10,-1 -18,-6 -24,-13 -6,-7 -10,-16 -13,-26 -2,-6 -3,-11 -3,-15 -1,-4 -1,-8 1,-14 1,-5 3,-10 7,-13 3,-3 7,-5 12,-6l1 0 196 0 0 87 -33 0c2,10 3,21 0,33 -2,16 -10,31 -24,44 -14,14 -32,27 -56,39 -48,26 -108,36 -178,29 -48,-4 -84,-20 -110,-48 -25,-27 -38,-65 -39,-113 0,-34 7,-72 23,-114l5 -13 80 20 -5 16c-11,34 -17,63 -17,86 1,29 9,50 25,64 17,14 43,21 80,21 41,0 79,-11 114,-32 6,-4 11,-8 15,-11 4,-4 6,-7 8,-8 1,-2 1,-4 2,-5 0,-2 -3,-5 -7,-8l-59 0 -1 0zm288 -32c-25,21 -59,32 -102,32l-27 0 0 -87 29 0c4,0 7,-1 10,-1 19,-2 33,-8 40,-17 11,-16 16,-40 13,-72 -2,-22 -5,-42 -9,-60l-4 -16 78 -16 5 13c7,21 11,46 13,76 3,70 -12,119 -46,148zm2 86l43 43 -43 43 -43 -43 43 -43zm-92 0l43 43 -43 43 -43 -43 43 -43zm283 -218c-8,-1 -15,2 -20,8 -7,8 -11,21 -11,39 0,6 1,12 3,15 2,4 5,8 10,11 9,5 25,6 48,4 0,-30 -5,-53 -15,-68 -3,-5 -8,-8 -15,-9zm103 164c-11,38 -33,69 -66,95 -34,27 -84,43 -150,50l-15 2 -15 -83 18 -2c69,-5 115,-26 137,-63 -4,0 -8,0 -12,0 -39,1 -68,-12 -88,-39 -17,-23 -25,-51 -23,-85 1,-32 12,-62 32,-87 22,-28 49,-42 81,-42 22,0 41,6 58,18 16,12 29,29 39,51 8,19 13,48 14,87 1,4 1,7 1,11l40 -1 0 88 -51 0zm161 -32c-25,21 -59,32 -102,32l-27 0 0 -87 29 0c4,0 7,-1 10,-1 19,-2 33,-8 40,-17 11,-16 16,-40 13,-72 -2,-22 -5,-42 -9,-60l-4 -16 78 -16 4 13c8,21 12,46 13,76 4,70 -11,119 -45,148zm1 86l43 43 -43 43 -42 -43 42 -43zm-91 0l43 43 -43 43 -43 -43 43 -43zm324 -147c10,-2 16,-6 18,-12 2,-6 2,-14 -1,-24 -12,-36 -49,-72 -111,-109l-15 -8 47 -71 13 7c90,54 140,114 149,180 5,34 -2,62 -21,83 -29,31 -69,46 -123,46 -47,0 -80,-2 -98,-6l-12 -3 0 -87 18 3c55,9 100,9 136,1zm151 -343l84 0 0 435 -84 0 0 -435zm252 388c4,-34 -4,-66 -25,-96l-10 -15 75 -39 7 12c31,45 43,94 36,149 -7,54 -30,96 -68,127 -38,30 -90,49 -157,55l-14 2 -15 -83 17 -1c50,-4 87,-16 111,-34 25,-18 39,-44 43,-77zm905 -107c-2,36 -13,67 -34,91 -20,24 -50,41 -88,52 -29,8 -71,12 -126,12 -65,0 -113,-5 -145,-14 -36,-10 -64,-28 -84,-52 -20,-24 -32,-54 -36,-90 -2,-25 2,-54 11,-87l4 -14 81 18 -3 15c-5,30 -8,49 -7,57 1,20 8,35 19,47 11,11 28,20 50,25 24,5 52,7 83,7 11,0 20,0 28,0 18,0 29,0 33,0 31,-1 50,-3 59,-5 23,-5 40,-14 51,-26 11,-11 17,-26 18,-45 1,-11 -1,-30 -7,-58l-2 -16 79 -16 4 13c9,29 13,57 12,86zm-212 -195l43 43 -43 42 -42 -42 42 -43zm-91 0l43 43 -43 42 -43 -42 43 -43zm363 207l0 -293 83 0 0 289c0,17 3,30 7,38 4,7 10,13 17,16 7,4 16,6 29,6l29 0 0 87 -36 0c-25,0 -47,-5 -66,-15 -19,-10 -34,-25 -44,-45 -13,-26 -19,-53 -19,-83zm136 143l0 -87 237 0 0 87 -237 0zm201 0l0 -87 236 0 0 87 -236 0zm200 0l0 -87 237 0 0 87 -237 0zm397 -91l30 0c35,0 67,-7 96,-20 25,-12 40,-27 43,-46 2,-12 0,-21 -4,-27 -4,-7 -13,-11 -24,-13 -23,-4 -46,4 -69,24 -26,22 -50,50 -72,82zm48 91l-239 0 0 -87 55 0 0 -349 84 0 0 281c37,-58 79,-98 126,-119 40,-18 78,-19 116,-2 21,9 36,24 46,45 10,20 15,46 15,76 0,44 -19,81 -58,109 -41,31 -89,46 -145,46zm250 -143l0 -293 84 0 0 289c0,17 2,30 7,38 4,7 9,13 16,16 7,4 17,6 29,6l29 0 0 87 -35 0c-26,0 -48,-5 -67,-15 -18,-10 -33,-25 -44,-45 -12,-26 -19,-53 -19,-83zm255 117c-20,17 -46,26 -76,26l-31 0 0 -87 16 0c19,0 31,-4 37,-10 7,-7 12,-17 13,-29l9 -82 65 0 8 82c2,13 6,22 13,29 8,6 21,10 41,10l17 0 0 87 -36 0c-30,0 -56,-9 -76,-26zm-51 81l43 43 -43 42 -43 -42 43 -43zm259 -87c-25,21 -59,32 -102,32l-26 0 0 -87 29 0c4,0 7,-1 9,-1 20,-2 33,-8 40,-17 12,-16 16,-40 14,-72 -2,-22 -5,-42 -10,-60l-4 -16 78 -16 5 13c7,21 12,46 13,76 3,70 -12,119 -46,148zm20 -368l43 43 -43 42 -42 -42 42 -43zm-91 0l43 43 -43 42 -43 -42 43 -43zm280 352c4,-34 -4,-66 -25,-96l-10 -15 74 -39 8 12c30,45 42,94 35,149 -7,54 -29,96 -67,127 -39,30 -91,49 -157,55l-15 2 -15 -83 18 -1c49,-4 86,-16 111,-34 24,-18 39,-44 43,-77zm129 -388l84 0 0 435 -84 0 0 -435zm558 272c-8,-1 -14,2 -19,8 -8,8 -11,21 -11,39 -1,12 4,20 12,26 9,5 25,6 48,4 1,-30 -4,-53 -14,-68 -3,-5 -8,-8 -16,-9zm-128 310l-15 -82 18 -1c70,-7 116,-28 138,-64 -4,0 -8,0 -12,0 -39,1 -69,-12 -88,-39 -18,-23 -25,-51 -24,-85 1,-32 12,-62 33,-88 21,-27 48,-40 81,-41 22,0 41,6 58,18 16,12 29,29 38,50 10,23 15,53 15,89 0,28 -2,55 -7,81 -8,47 -32,84 -70,111 -38,28 -88,45 -151,50l-14 1z"/>
  </g>
 </g>
</svg>
